<svg width="1525" height="403" viewBox="0 0 1525 403" fill="none" xmlns="http://www.w3.org/2000/svg">
<rect y="65" width="70" height="230" fill="white"></rect>
<rect x="230" y="30" width="70" height="300" fill="white"></rect>
<rect x="115" y="65" width="70" height="265" fill="white"></rect>
<circle cx="35" cy="65" r="35" fill="white"></circle>
<circle cx="150" cy="65" r="35" fill="white"></circle>
<circle cx="35" cy="295" r="35" fill="white"></circle>
<path d="M579.797 108.734V281H543.82V203.773H476.555V281H440.578V108.734H476.555V174.008H543.82V108.734H579.797ZM728.156 281H696.047V262.953H695.578C687.062 277.25 674.094 284.398 656.672 284.398C643.156 284.398 632.531 280.414 624.797 272.445C617.062 264.477 613.195 252.758 613.195 237.289V153.266H646.828V232.484C646.828 240.609 648.703 246.586 652.453 250.414C656.203 254.164 661.594 256.039 668.625 256.039C676.203 256.039 682.414 253.539 687.258 248.539C692.102 243.461 694.523 236.273 694.523 226.977V153.266H728.156V281ZM943.898 281H910.266V202.836C910.266 195.414 908.781 189.477 905.812 185.023C902.844 180.492 898.039 178.227 891.398 178.227C884.758 178.227 879.406 180.297 875.344 184.438C871.281 188.578 869.25 194.828 869.25 203.188V281H835.617V201.312C835.617 193.344 834.016 187.523 830.812 183.852C827.609 180.102 822.492 178.227 815.461 178.227C808.43 178.227 803.195 180.336 799.758 184.555C796.32 188.695 794.602 194.906 794.602 203.188V281H760.969V153.266H793.195V172.016H793.664C801.164 157.328 813.508 149.984 830.695 149.984C846.32 149.984 857.883 156.781 865.383 170.375C873.898 156.781 885.266 149.984 899.484 149.984C912.609 149.984 923.273 153.734 931.477 161.234C939.758 168.656 943.898 179.125 943.898 192.641V281ZM1048.2 219.125C1044.05 222.016 1036.01 224.32 1024.05 226.039C1014.05 227.445 1007.49 229.711 1004.37 232.836C1001.32 235.883 999.797 239.945 999.797 245.023C999.797 250.102 1001.44 253.93 1004.72 256.508C1008 259.086 1011.91 260.375 1016.44 260.375C1025.03 260.375 1032.45 257.992 1038.7 253.227C1045.03 248.383 1048.2 242.367 1048.2 235.18V219.125ZM1081.01 256.039C1081.01 261.898 1081.55 266.508 1082.65 269.867C1083.74 273.148 1085.66 275.18 1088.39 275.961V281H1052.41C1050.85 276.703 1049.76 271.664 1049.13 265.883C1038.2 278.227 1023.98 284.398 1006.48 284.398C994.367 284.398 984.602 281.039 977.18 274.32C969.836 267.602 966.164 258.539 966.164 247.133C966.164 236.195 969.367 227.172 975.773 220.062C982.258 212.953 991.906 208.461 1004.72 206.586L1036.12 202.016C1040.42 201.391 1043.51 200.219 1045.38 198.5C1047.26 196.703 1048.2 194.438 1048.2 191.703C1048.2 186.781 1046.4 183.07 1042.8 180.57C1039.21 177.992 1033.7 176.703 1026.28 176.703C1018.55 176.703 1012.88 178.109 1009.29 180.922C1005.77 183.734 1003.59 188.305 1002.73 194.633H970.266C971.906 179.086 977.18 167.758 986.086 160.648C995.07 153.539 1009.37 149.984 1028.98 149.984C1044.76 149.984 1057.38 153.148 1066.83 159.477C1076.28 165.805 1081.01 174.945 1081.01 186.898V256.039ZM1227.49 281H1193.86V201.664C1193.86 194.242 1192.18 188.5 1188.82 184.438C1185.46 180.297 1179.88 178.227 1172.06 178.227C1164.02 178.227 1157.61 180.883 1152.84 186.195C1148.08 191.43 1145.7 198.617 1145.7 207.758V281H1112.06V153.266H1144.29V172.016H1144.76C1152.8 157.328 1165.5 149.984 1182.84 149.984C1195.89 149.984 1206.59 153.734 1214.95 161.234C1223.31 168.656 1227.49 179.125 1227.49 192.641V281ZM1346.2 217.133C1346.2 204.945 1343.66 195.414 1338.59 188.539C1333.59 181.664 1326.01 178.227 1315.85 178.227C1306.4 178.227 1298.98 181.469 1293.59 187.953C1288.2 194.359 1285.5 204.086 1285.5 217.133C1285.5 229.945 1288.12 239.633 1293.35 246.195C1298.59 252.758 1306.09 256.039 1315.85 256.039C1325.93 256.039 1333.51 252.641 1338.59 245.844C1343.66 239.047 1346.2 229.477 1346.2 217.133ZM1380.77 217.133C1380.77 237.992 1374.76 254.438 1362.73 266.469C1350.77 278.422 1335.15 284.398 1315.85 284.398C1296.87 284.398 1281.28 278.461 1269.09 266.586C1256.98 254.633 1250.93 238.148 1250.93 217.133C1250.93 195.961 1256.98 179.477 1269.09 167.68C1281.28 155.883 1296.87 149.984 1315.85 149.984C1335.3 149.984 1350.97 156.039 1362.84 168.148C1374.8 180.18 1380.77 196.508 1380.77 217.133ZM1477.34 192.406C1476.71 186.859 1474.68 182.562 1471.24 179.516C1467.8 176.469 1462.34 174.945 1454.84 174.945C1447.88 174.945 1442.77 176.078 1439.48 178.344C1436.2 180.609 1434.56 183.461 1434.56 186.898C1434.56 190.258 1435.93 192.875 1438.66 194.75C1441.48 196.547 1452.18 199.633 1470.77 204.008C1489.76 208.461 1501.83 213.656 1506.98 219.594C1512.14 225.453 1514.72 232.797 1514.72 241.625C1514.72 255.766 1509.72 266.586 1499.72 274.086C1489.8 281.586 1474.95 285.336 1455.19 285.336C1437.77 285.336 1424.09 281.742 1414.17 274.555C1404.33 267.367 1398.66 256.078 1397.18 240.688H1431.63C1431.63 247.328 1433.74 252.289 1437.96 255.57C1442.26 258.773 1448.74 260.375 1457.41 260.375C1464.76 260.375 1470.38 259.281 1474.29 257.094C1478.2 254.828 1480.15 251.859 1480.15 248.188C1480.15 244.438 1478.7 241.547 1475.81 239.516C1473 237.406 1463.35 234.594 1446.87 231.078C1428.51 227.172 1416.32 222.094 1410.3 215.844C1404.37 209.516 1401.4 201.938 1401.4 193.109C1401.4 180.453 1405.93 170.102 1414.99 162.055C1424.05 154.008 1437.45 149.984 1455.19 149.984C1472.53 149.984 1485.81 153.578 1495.03 160.766C1504.25 167.953 1509.37 178.5 1510.38 192.406H1477.34Z" fill="white"></path>
</svg>